<mxfile modified="2021-06-08T05:47:57.696Z" host="app.diagrams.net" agent="5.0 (Windows NT 10.0; Win64; x64) AppleWebKit/537.36 (KHTML, like Gecko) Chrome/91.0.4472.77 Safari/537.36 Edg/91.0.864.41" etag="QzruwIYQoL7EpxPDLhB9" version="14.7.6" type="github">
  <diagram id="f106602c-feb2-e66a-4537-3a34d633f6aa" name="Page-1">
    <mxGraphModel dx="1240" dy="689" grid="0" gridSize="10" guides="1" tooltips="1" connect="1" arrows="1" fold="1" page="1" pageScale="1" pageWidth="1169" pageHeight="827" background="none" math="0" shadow="0">
      <root>
        <mxCell id="0" />
        <mxCell id="1" parent="0" />
        <mxCell id="14" value="&lt;b&gt;Google &lt;/b&gt;Cloud Platform" style="fillColor=#F6F6F6;strokeColor=none;shadow=0;gradientColor=none;fontSize=14;align=left;spacing=10;fontColor=#717171;9E9E9E;verticalAlign=top;spacingTop=-4;fontStyle=0;spacingLeft=40;html=1;" parent="1" vertex="1">
          <mxGeometry x="332" y="110" width="478" height="580" as="geometry" />
        </mxCell>
        <mxCell id="15" value="" style="shape=mxgraph.gcp2.google_cloud_platform;fillColor=#F6F6F6;strokeColor=none;shadow=0;gradientColor=none;" parent="14" vertex="1">
          <mxGeometry width="23" height="20" relative="1" as="geometry">
            <mxPoint x="17" y="8" as="offset" />
          </mxGeometry>
        </mxCell>
        <mxCell id="OtPVBB2EnPBVkjYZaikN-47" style="edgeStyle=orthogonalEdgeStyle;rounded=0;orthogonalLoop=1;jettySize=auto;html=1;exitX=1;exitY=0.5;exitDx=0;exitDy=0;" edge="1" parent="14" source="OtPVBB2EnPBVkjYZaikN-27" target="OtPVBB2EnPBVkjYZaikN-44">
          <mxGeometry relative="1" as="geometry" />
        </mxCell>
        <mxCell id="OtPVBB2EnPBVkjYZaikN-59" style="edgeStyle=orthogonalEdgeStyle;rounded=0;orthogonalLoop=1;jettySize=auto;html=1;exitX=0.75;exitY=0;exitDx=0;exitDy=0;entryX=1;entryY=0.5;entryDx=0;entryDy=0;" edge="1" parent="14" source="OtPVBB2EnPBVkjYZaikN-27" target="OtPVBB2EnPBVkjYZaikN-30">
          <mxGeometry relative="1" as="geometry" />
        </mxCell>
        <mxCell id="OtPVBB2EnPBVkjYZaikN-27" value="" style="strokeColor=#dddddd;shadow=1;strokeWidth=1;rounded=1;absoluteArcSize=1;arcSize=2;" vertex="1" parent="14">
          <mxGeometry x="45.93333333333334" y="54" width="116.84444444444443" height="60" as="geometry" />
        </mxCell>
        <mxCell id="OtPVBB2EnPBVkjYZaikN-28" value="&lt;font color=&quot;#e8e6e3&quot;&gt;LAPOKAP&lt;/font&gt;&lt;br&gt;Firebase" style="dashed=0;connectable=0;html=1;fillColor=#5184F3;strokeColor=none;shape=mxgraph.gcp2.firebase;part=1;labelPosition=right;verticalLabelPosition=middle;align=left;verticalAlign=middle;spacingLeft=5;fontColor=#999999;fontSize=12;" vertex="1" parent="OtPVBB2EnPBVkjYZaikN-27">
          <mxGeometry width="32.4" height="45" relative="1" as="geometry">
            <mxPoint x="5" y="7" as="offset" />
          </mxGeometry>
        </mxCell>
        <mxCell id="OtPVBB2EnPBVkjYZaikN-49" style="edgeStyle=orthogonalEdgeStyle;rounded=0;orthogonalLoop=1;jettySize=auto;html=1;exitX=0;exitY=0.25;exitDx=0;exitDy=0;entryX=1;entryY=0.25;entryDx=0;entryDy=0;" edge="1" parent="14" source="OtPVBB2EnPBVkjYZaikN-44" target="OtPVBB2EnPBVkjYZaikN-27">
          <mxGeometry relative="1" as="geometry" />
        </mxCell>
        <mxCell id="OtPVBB2EnPBVkjYZaikN-53" style="edgeStyle=orthogonalEdgeStyle;rounded=0;orthogonalLoop=1;jettySize=auto;html=1;exitX=0.25;exitY=1;exitDx=0;exitDy=0;entryX=1;entryY=0.25;entryDx=0;entryDy=0;" edge="1" parent="14" source="OtPVBB2EnPBVkjYZaikN-44" target="OtPVBB2EnPBVkjYZaikN-51">
          <mxGeometry relative="1" as="geometry" />
        </mxCell>
        <mxCell id="OtPVBB2EnPBVkjYZaikN-44" value="" style="strokeColor=#dddddd;shadow=1;strokeWidth=1;rounded=1;absoluteArcSize=1;arcSize=2;" vertex="1" parent="14">
          <mxGeometry x="204.20444444444445" y="54" width="162.51999999999998" height="60" as="geometry" />
        </mxCell>
        <mxCell id="OtPVBB2EnPBVkjYZaikN-45" value="&lt;font color=&quot;#000000&quot;&gt;ML-Chat Model&lt;/font&gt;&lt;br&gt;App Engine" style="dashed=0;connectable=0;html=1;fillColor=#5184F3;strokeColor=none;shape=mxgraph.gcp2.hexIcon;prIcon=app_engine;part=1;labelPosition=right;verticalLabelPosition=middle;align=left;verticalAlign=middle;spacingLeft=5;fontColor=#999999;fontSize=12;" vertex="1" parent="OtPVBB2EnPBVkjYZaikN-44">
          <mxGeometry y="0.5" width="44" height="39" relative="1" as="geometry">
            <mxPoint x="5" y="-19.5" as="offset" />
          </mxGeometry>
        </mxCell>
        <mxCell id="OtPVBB2EnPBVkjYZaikN-51" value="" style="strokeColor=#dddddd;shadow=1;strokeWidth=1;rounded=1;absoluteArcSize=1;arcSize=2;" vertex="1" parent="14">
          <mxGeometry x="45.93333333333334" y="218" width="131.71555555555554" height="60" as="geometry" />
        </mxCell>
        <mxCell id="OtPVBB2EnPBVkjYZaikN-52" value="file_lapokap" style="dashed=0;connectable=0;html=1;fillColor=#5184F3;strokeColor=none;shape=mxgraph.gcp2.hexIcon;prIcon=cloud_storage;part=1;labelPosition=right;verticalLabelPosition=middle;align=left;verticalAlign=middle;spacingLeft=5;fontColor=#999999;fontSize=12;" vertex="1" parent="OtPVBB2EnPBVkjYZaikN-51">
          <mxGeometry y="0.5" width="44" height="39" relative="1" as="geometry">
            <mxPoint x="5" y="-19.5" as="offset" />
          </mxGeometry>
        </mxCell>
        <mxCell id="OtPVBB2EnPBVkjYZaikN-30" value="" style="strokeColor=#dddddd;shadow=1;strokeWidth=1;rounded=1;absoluteArcSize=1;arcSize=2;" vertex="1" parent="14">
          <mxGeometry x="269" y="148" width="116.84444444444443" height="60" as="geometry" />
        </mxCell>
        <mxCell id="OtPVBB2EnPBVkjYZaikN-31" value="Cloud&#xa;Firestore" style="dashed=0;connectable=0;html=1;fillColor=#5184F3;strokeColor=none;shape=mxgraph.gcp2.hexIcon;prIcon=cloud_firestore;part=1;labelPosition=right;verticalLabelPosition=middle;align=left;verticalAlign=middle;spacingLeft=5;fontColor=#999999;fontSize=12;" vertex="1" parent="OtPVBB2EnPBVkjYZaikN-30">
          <mxGeometry y="0.5" width="44" height="39" relative="1" as="geometry">
            <mxPoint x="5" y="-19.5" as="offset" />
          </mxGeometry>
        </mxCell>
        <mxCell id="OtPVBB2EnPBVkjYZaikN-32" value="" style="strokeColor=#dddddd;shadow=1;strokeWidth=1;rounded=1;absoluteArcSize=1;arcSize=2;" vertex="1" parent="14">
          <mxGeometry x="49.360000000000014" y="150" width="110" height="60" as="geometry" />
        </mxCell>
        <mxCell id="OtPVBB2EnPBVkjYZaikN-33" value="Lapokap&lt;br&gt;Storage" style="dashed=0;connectable=0;html=1;fillColor=#5184F3;strokeColor=none;shape=mxgraph.gcp2.hexIcon;prIcon=cloud_storage;part=1;labelPosition=right;verticalLabelPosition=middle;align=left;verticalAlign=middle;spacingLeft=5;fontColor=#999999;fontSize=12;" vertex="1" parent="OtPVBB2EnPBVkjYZaikN-32">
          <mxGeometry y="0.5" width="44" height="39" relative="1" as="geometry">
            <mxPoint x="5" y="-19.5" as="offset" />
          </mxGeometry>
        </mxCell>
        <mxCell id="OtPVBB2EnPBVkjYZaikN-48" style="edgeStyle=orthogonalEdgeStyle;rounded=0;orthogonalLoop=1;jettySize=auto;html=1;exitX=0.5;exitY=1;exitDx=0;exitDy=0;entryX=0.5;entryY=0;entryDx=0;entryDy=0;" edge="1" parent="14" source="OtPVBB2EnPBVkjYZaikN-27" target="OtPVBB2EnPBVkjYZaikN-32">
          <mxGeometry relative="1" as="geometry" />
        </mxCell>
        <mxCell id="2" value="Architecture: Android UI &amp;gt; Firebase with ML Model for Chat" style="fillColor=#4DA1F5;strokeColor=none;shadow=1;gradientColor=none;fontSize=14;align=left;spacingLeft=50;fontColor=#ffffff;html=1;" parent="1" vertex="1">
          <mxGeometry x="85" y="40" width="765" height="40" as="geometry" />
        </mxCell>
        <mxCell id="16" value="" style="rounded=1;absoluteArcSize=1;arcSize=2;html=1;strokeColor=none;gradientColor=none;shadow=0;dashed=0;strokeColor=none;fontSize=12;fontColor=#9E9E9E;align=left;verticalAlign=top;spacing=10;spacingTop=-4;fillColor=#E0E0E0;" parent="1" vertex="1">
          <mxGeometry x="180" y="740" width="670" height="30" as="geometry" />
        </mxCell>
        <mxCell id="OtPVBB2EnPBVkjYZaikN-57" style="edgeStyle=orthogonalEdgeStyle;rounded=0;orthogonalLoop=1;jettySize=auto;html=1;exitX=1;exitY=0.5;exitDx=0;exitDy=0;entryX=0;entryY=0.5;entryDx=0;entryDy=0;" edge="1" parent="1" source="OtPVBB2EnPBVkjYZaikN-25" target="OtPVBB2EnPBVkjYZaikN-27">
          <mxGeometry relative="1" as="geometry" />
        </mxCell>
        <mxCell id="OtPVBB2EnPBVkjYZaikN-25" value="Android" style="strokeColor=#dddddd;shadow=1;strokeWidth=1;rounded=1;absoluteArcSize=1;arcSize=2;labelPosition=center;verticalLabelPosition=middle;align=center;verticalAlign=bottom;spacingLeft=0;fontColor=#999999;fontSize=12;whiteSpace=wrap;spacingBottom=2;" vertex="1" parent="1">
          <mxGeometry x="215" y="152" width="70" height="85" as="geometry" />
        </mxCell>
        <mxCell id="OtPVBB2EnPBVkjYZaikN-26" value="" style="dashed=0;connectable=0;html=1;fillColor=#757575;strokeColor=none;shape=mxgraph.gcp2.phone;part=1;" vertex="1" parent="OtPVBB2EnPBVkjYZaikN-25">
          <mxGeometry x="0.5" width="32" height="50" relative="1" as="geometry">
            <mxPoint x="-16" y="10" as="offset" />
          </mxGeometry>
        </mxCell>
        <mxCell id="OtPVBB2EnPBVkjYZaikN-36" value="Input: Chat" style="whiteSpace=wrap;html=1;align=center;" vertex="1" parent="1">
          <mxGeometry x="210" y="242" width="80" height="40" as="geometry" />
        </mxCell>
        <mxCell id="OtPVBB2EnPBVkjYZaikN-37" value="" style="shape=image;html=1;verticalAlign=top;verticalLabelPosition=bottom;labelBackgroundColor=#ffffff;imageAspect=0;aspect=fixed;image=https://cdn4.iconfinder.com/data/icons/essential-app-2/16/user-avatar-human-admin-login-128.png" vertex="1" parent="1">
          <mxGeometry x="175" y="92" width="48" height="48" as="geometry" />
        </mxCell>
        <mxCell id="OtPVBB2EnPBVkjYZaikN-38" value="Google Login Auth" style="whiteSpace=wrap;html=1;" vertex="1" parent="1">
          <mxGeometry x="230" y="100" width="90" height="40" as="geometry" />
        </mxCell>
        <mxCell id="OtPVBB2EnPBVkjYZaikN-58" style="edgeStyle=orthogonalEdgeStyle;rounded=0;orthogonalLoop=1;jettySize=auto;html=1;exitX=0;exitY=0.25;exitDx=0;exitDy=0;entryX=0.986;entryY=0.329;entryDx=0;entryDy=0;entryPerimeter=0;" edge="1" parent="1" source="OtPVBB2EnPBVkjYZaikN-27" target="OtPVBB2EnPBVkjYZaikN-25">
          <mxGeometry relative="1" as="geometry" />
        </mxCell>
      </root>
    </mxGraphModel>
  </diagram>
</mxfile>
